<?xml version="1.0" standalone="no"?>
<!DOCTYPE svg PUBLIC "-//W3C//DTD SVG 20010904//EN"
 "http://www.w3.org/TR/2001/REC-SVG-20010904/DTD/svg10.dtd">
<svg version="1.0" xmlns="http://www.w3.org/2000/svg"
 width="175.000000pt" height="175.000000pt" viewBox="0 0 175.000000 175.000000"
 preserveAspectRatio="xMidYMid meet">
<metadata>
Created by potrace 1.14, written by Peter Selinger 2001-2017
</metadata>
<g transform="translate(0.000000,175.000000) scale(0.100000,-0.100000)"
fill="#000000" stroke="none">
<path d="M1222 1400 c-66 -14 -147 -56 -186 -96 -110 -113 -109 -292 2 -395
54 -50 101 -70 282 -120 129 -35 167 -52 192 -83 40 -49 8 -145 -59 -173 -44
-18 -136 -20 -184 -4 -60 20 -109 85 -109 147 0 26 1 26 -110 26 -121 0 -113
3 -106 -44 12 -92 26 -129 71 -184 86 -104 272 -153 449 -117 130 27 221 94
263 195 30 73 26 199 -8 255 -53 86 -120 124 -318 178 -148 40 -203 65 -220
102 -37 81 32 153 148 153 92 0 155 -45 167 -121 7 -44 10 -45 129 -44 l90 0
-3 45 c-7 129 -75 218 -198 261 -67 24 -223 34 -292 19z"/>
<path d="M579 1381 c0 -3 -1 -172 -2 -376 -2 -368 -2 -370 -25 -407 -27 -43
-76 -62 -148 -55 l-45 4 3 -91 3 -91 40 -5 c60 -8 177 7 227 29 52 22 118 93
138 148 11 29 15 132 17 444 l4 406 -105 0 c-58 0 -106 -2 -107 -6z"/>
<path d="M0 489 c0 -66 3 -119 8 -120 14 -1 157 -1 185 0 l27 1 0 119 0 119
-110 0 -110 0 0 -119z"/>
</g>
</svg>
